PathFileType	4	(X/Y/Z)	/Users/niels/Desktop/University/Third Semester/Perception and Action/Exam/Gymnastics Motion Tracking/Code for Gym Tracking/Analyzed Data/Webcam_Backflip/id5_7_trajectory_Sports2D/id5_7_trajectory_Sports2D_px_person00.trc
DataRate	CameraRate	NumFrames	NumMarkers	Units	OrigDataRate	OrigDataStartFrame	OrigNumFrames
29.77272727272727	29.77272727272727	10	22	m	29.77272727272727	99	132
Frame#	Time	Hip			RHip			RKnee			RAnkle			RBigToe			RSmallToe			RHeel			LHip			LKnee			LAnkle			LBigToe			LSmallToe			LHeel			Neck			Head			Nose			RShoulder			RElbow			RWrist			LShoulder			LElbow			LWrist		
		X1	Y1	Z1	X2	Y2	Z2	X3	Y3	Z3	X4	Y4	Z4	X5	Y5	Z5	X6	Y6	Z6	X7	Y7	Z7	X8	Y8	Z8	X9	Y9	Z9	X10	Y10	Z10	X11	Y11	Z11	X12	Y12	Z12	X13	Y13	Z13	X14	Y14	Z14	X15	Y15	Z15	X16	Y16	Z16	X17	Y17	Z17	X18	Y18	Z18	X19	Y19	Z19	X20	Y20	Z20	X21	Y21	Z21	X22	Y22	Z22
99	3.3251908396946566	1.330000612358452	-0.7818839933212921	0.0	1.2959559197482629	-0.7898425243179382	0.0	1.2957813691689009	-0.930115317466041	0.0	1.2936222449214556	-1.073561877201253	0.0	1.332551091350564	-1.0776263979440384	0.0	1.3070532406155289	-1.0887187421600089	0.0	1.2865754487789387	-1.0847624969425123	0.0	1.368720726322785	-0.7787921900887649	0.0	1.4482781049217883	-0.8803597248198534	0.0	1.4136225964465108	-1.036869490610455	0.0	1.44884560175046	-1.0722585905173385	0.0	1.4550152454580347	-1.0688606584436273	0.0	1.3995424157066843	-1.0522792074245535	0.0	1.3263167879464255	-0.5548596910358903	0.0	1.3340105233860435	-0.4517866772318237	0.0	1.335750264680093	-0.5150669569139081	0.0	1.2630744401647598	-0.5999862662081916	0.0	1.233491543659725	-0.7072116692495217	0.0	1.2659561099576389	-0.806598803646401	0.0	1.3799480924973013	-0.579598504391089	0.0	1.3885274792176932	-0.6763781567135947	0.0	1.4309357007153884	-0.7632808367746012	0.0
100	3.3587786259541987	1.3357446567098687	-0.7787254448423604	0.0	1.3007673114870648	-0.7870797506955366	0.0	1.2975887055230084	-0.9262004609552309	0.0	1.294811974917411	-1.0722088881240293	0.0	1.332295222741168	-1.0770989251500234	0.0	1.3047624170724954	-1.088394250019585	0.0	1.2884706892306397	-1.083221919595322	0.0	1.3750985706660468	-0.7759382852869188	0.0	1.4475363404463295	-0.8803503855056657	0.0	1.4321271537783098	-1.048689827800598	0.0	1.4590077542380564	-1.0751487603127647	0.0	1.469681333275343	-1.0761723342258807	0.0	1.419564298160926	-1.065171831080025	0.0	1.3322375217633249	-0.550702055072674	0.0	1.3397463344602656	-0.44679681498514534	0.0	1.3411574579931598	-0.5106259942738306	0.0	1.267538244233612	-0.5951238751658045	0.0	1.238489719179486	-0.7037601977442246	0.0	1.2730139036354227	-0.8020985884379086	0.0	1.3875585294541442	-0.5754182686907542	0.0	1.3969200650251068	-0.6726397347878927	0.0	1.4400588639226175	-0.7620304296478704	0.0
101	3.3923664122137405	1.3420434191400645	-0.7768686673589503	0.0	1.305959894396186	-0.7855489730828582	0.0	1.299825849611987	-0.9237696353589793	0.0	1.2957469373072419	-1.0709291339387235	0.0	1.3317482153269415	-1.077399444254401	0.0	1.3015428568101786	-1.0884174307573722	0.0	1.2903246361749947	-1.0815565275142813	0.0	1.3820721728586938	-0.7746228830922846	0.0	1.4454807221673305	-0.8840182181982565	0.0	1.4457016729145764	-1.0590000314194017	0.0	1.461517393013629	-1.0771120856521577	0.0	1.4776480700747123	-1.08268286641346	0.0	1.4348885899718027	-1.0752836766941107	0.0	1.338668402358973	-0.5468044664390811	0.0	1.3460290983432865	-0.4421313555406652	0.0	1.3469739818867168	-0.5063632561144868	0.0	1.2723704468037287	-0.5903897600520039	0.0	1.2435699674268486	-0.7004367914636648	0.0	1.279661993488939	-0.7978383091365637	0.0	1.3957552429655768	-0.571970250088663	0.0	1.406208848078524	-0.6698953876671601	0.0	1.4500141117397218	-0.7622606335715606	0.0
102	3.4259541984732826	1.3488240349963174	-0.7762402503220887	0.0	1.3114703395075331	-0.7850616365029607	0.0	1.3025818990896985	-0.9229668147355736	0.0	1.2963565198757552	-1.069368172339831	0.0	1.3307439634603713	-1.0782387753937266	0.0	1.297461784381193	-1.0885388332896435	0.0	1.2918987805309174	-1.0794659344403195	0.0	1.3895848727497404	-0.7746497157080474	0.0	1.443065914429456	-0.8901840529854799	0.0	1.4540021384538082	-1.0673490821870038	0.0	1.4587438771831966	-1.0787402354880253	0.0	1.4800426034596545	-1.087981661703403	0.0	1.4448643801458254	-1.0825197529925763	0.0	1.345678926232737	-0.5429322076282175	0.0	1.3529162589974832	-0.43758989664929443	0.0	1.3532558128051577	-0.502076448369043	0.0	1.2776124181038981	-0.5856626191803346	0.0	1.2486668691748646	-0.6970453480398061	0.0	1.2856030061424886	-0.7937154065793368	0.0	1.4045904011348331	-0.5692568907637817	0.0	1.416341138323741	-0.6683339778789478	0.0	1.460634176248368	-0.7637917558213168	0.0
103	3.459541984732825	1.3558589673671952	-0.7764639595618908	0.0	1.317169515384534	-0.7851801055196518	0.0	1.3060451218327493	-0.9235863279686494	0.0	1.2967502623707703	-1.0669916301204916	0.0	1.329302581718961	-1.0791703393304697	0.0	1.2933152059246205	-1.0883859960988183	0.0	1.2931180062008514	-1.076398960430092	0.0	1.3973404734656611	-0.7755338086635336	0.0	1.4410264675922855	-0.8973090963261778	0.0	1.4578106594113587	-1.0736015169955946	0.0	1.4539337374095467	-1.0806077428594905	0.0	1.478960670068983	-1.0917013798635729	0.0	1.4501116856214284	-1.0871622011720328	0.0	1.3532850579887794	-0.5387921224072272	0.0	1.360511183774599	-0.4328360430879547	0.0	1.3601168328711168	-0.4974574583416165	0.0	1.283296027679549	-0.5807071998364598	0.0	1.2537440036272194	-0.6933173128466321	0.0	1.2905022462402045	-0.7894683352384331	0.0	1.4140309759939949	-0.5670315513613072	0.0	1.4272041389235097	-0.6679002824742891	0.0	1.4716517092775925	-0.766214150511318	0.0
104	3.4931297709923665	1.3627858896023635	-0.7769123879994503	0.0	1.3228665263878667	-0.7853019914063776	0.0	1.3105408322344085	-0.9250894361933573	0.0	1.297238316290529	-1.063209859207664	0.0	1.3278716214472694	-1.07976707495185	0.0	1.290387244756169	-1.0875721357693302	0.0	1.2940978274885324	-1.0716958558265686	0.0	1.4048809678418197	-0.7765943545613236	0.0	1.4398734476746242	-0.9039909716119493	0.0	1.458643968850321	-1.0778613546628049	0.0	1.4495753042243513	-1.0828151207348347	0.0	1.4765705433774505	-1.0936634239892364	0.0	1.4521314138053443	-1.089717297694237	0.0	1.3613832866574094	-0.5340684862085323	0.0	1.3688857777509627	-0.42743471962178053	0.0	1.3676279107614764	-0.4921723907522664	0.0	1.2893860941019588	-0.5752037925509333	0.0	1.258719111190606	-0.6888959222738885	0.0	1.2940561146525824	-0.7847655166343768	0.0	1.4239173256210276	-0.5647830178893443	0.0	1.4385863742671874	-0.6681521797579204	0.0	1.4827381841095206	-0.7688765167279553	0.0
105	3.5267175572519087	1.3692219297921455	-0.7768197919378165	0.0	1.328335826432303	-0.7847461506528863	0.0	1.3164005647444792	-0.9267666386035016	0.0	1.2983152246506535	-1.0576056536115697	0.0	1.3272959190378635	-1.0797803811658833	0.0	1.28974773160559	-1.085868917775394	0.0	1.29520160978711	-1.0648458059769452	0.0	1.411780784148912	-0.7770863761024603	0.0	1.439899705742565	-0.9093483155854182	0.0	1.4581294159354352	-1.0804232246566758	0.0	1.4468367037773084	-1.0850367957643208	0.0	1.4745400857904256	-1.0940102037337347	0.0	1.4525663372208124	-1.0908152021777626	0.0	1.3697567584433705	-0.5284409236024863	0.0	1.377952539418332	-0.4209683738014228	0.0	1.3757427758205256	-0.4859740564572029	0.0	1.2957043358132152	-0.5688087031745466	0.0	1.2634324505275212	-0.68338448198548	0.0	1.2960498978848967	-0.7792721230704571	0.0	1.433993085262738	-0.5618756148710786	0.0	1.4501714756071649	-0.668336347640826	0.0	1.4935701709661706	-0.7709354397921052	0.0
106	3.5603053435114504	1.374876594666617	-0.7754556946826509	0.0	1.3333626350852665	-0.7828556016597686	0.0	1.323714513555528	-0.9279308707775201	0.0	1.3005712089636916	-1.0501422102678755	0.0	1.3284157725439556	-1.0791963676916487	0.0	1.2917757127410043	-1.0832926275627413	0.0	1.2970429536952683	-1.0557842781571154	0.0	1.4177768674597293	-0.776339796239344	0.0	1.4411234405301427	-0.9130806584546833	0.0	1.4574846900769123	-1.0817185971135426	0.0	1.4458633573642776	-1.0869048896229194	0.0	1.473747860170235	-1.0931572282638433	0.0	1.4526123262755766	-1.0910639660054744	0.0	1.3781176928356895	-0.5216452448342859	0.0	1.3874216708313294	-0.41315540134606876	0.0	1.3842484955443406	-0.47875171033245617	0.0	1.3019260229541159	-0.5612664382001628	0.0	1.2676758476928676	-0.676447547409187	0.0	1.2964097889001793	-0.772677455053101	0.0	1.4439608496459158	-0.5578017586144888	0.0	1.4616057192837133	-0.6675978347675909	0.0	1.5038647483938974	-0.7715126295932775	0.0
107	3.5938931297709926	1.3796094394284695	-0.7723168743127242	0.0	1.3377960703970415	-0.7791441160497012	0.0	1.3321740305856085	-0.9279623885003494	0.0	1.3045726078025268	-1.041305213094223	0.0	1.3316928313712488	-1.0781732468465663	0.0	1.296291875962106	-1.0800837126484784	0.0	1.3003723404876366	-1.0451554384689221	0.0	1.422778890162032	-0.7738818066119786	0.0	1.4432894829440837	-0.915281126812339	0.0	1.45732402441248	-1.0822230208142685	0.0	1.4461878968095512	-1.0882840429860623	0.0	1.4742440350108312	-1.0916768405729256	0.0	1.452840854333997	-1.0909300644007562	0.0	1.386151834655351	-0.5135435475063315	0.0	1.396872772137127	-0.4038977633438325	0.0	1.3927834516874982	-0.47047750148422474	0.0	1.3076664168645515	-0.5525133663321161	0.0	1.2712240173218035	-0.6679110505673588	0.0	1.295219964680518	-0.7647495889825617	0.0	1.4535331691101867	-0.5523531122868302	0.0	1.4725663851171693	-0.665191836739339	0.0	1.51340116713481	-0.7698542628251378	0.0
108	3.6274809160305344	1.3834381712808488	-0.7672587058522116	0.0	1.3415573007068677	-0.7734379443214464	0.0	1.341099475260249	-0.9262827754884797	0.0	1.3107626081040924	-1.0323016640946623	0.0	1.337209323131521	-1.0770096285879367	0.0	1.3029550260745513	-1.0767575866872081	0.0	1.3059104744992402	-1.0345791793445542	0.0	1.4268496877374217	-0.7695366162617588	0.0	1.4459829943999036	-0.9162507900280337	0.0	1.4577643230304163	-1.082316129090239	0.0	1.4470820891027674	-1.0892971091631098	0.0	1.4755504994028914	-1.0901869674117926	0.0	1.4533507847953284	-1.0906889354236513	0.0	1.3935777352238392	-0.5041751642642199	0.0	1.4058221189528013	-0.39328795621655077	0.0	1.4009480540598425	-0.46113074973308	0.0	1.3125998840786524	-0.542707812290018	0.0	1.273882659722487	-0.6578319843449338	0.0	1.2927121625610447	-0.7554668122546165	0.0	1.4624674229370689	-0.5456068176203395	0.0	1.4828137009104994	-0.6607178731158398	0.0	1.5220258188075273	-0.7654624900354632	0.0
